<svg id="To_the_top" data-name="To the top" xmlns="http://www.w3.org/2000/svg" width="38.5" height="38.5" viewBox="0 0 38.5 38.5">
  <path id="Icon_awesome-arrow-circle-up" data-name="Icon awesome-arrow-circle-up" d="M.563,19.813a19.25,19.25,0,1,1,19.25,19.25A19.247,19.247,0,0,1,.563,19.813Zm11.146,2.243,5.62-5.86V30.369a1.858,1.858,0,0,0,1.863,1.863h1.242A1.858,1.858,0,0,0,22.3,30.369V16.2l5.62,5.86a1.865,1.865,0,0,0,2.662.031l.846-.854a1.855,1.855,0,0,0,0-2.631L21.132,8.3a1.855,1.855,0,0,0-2.631,0L8.193,18.6a1.855,1.855,0,0,0,0,2.631l.846.854A1.874,1.874,0,0,0,11.709,22.056Z" transform="translate(-0.563 -0.563)" fill="#36868f"/>
</svg>
